PathFileType	4	(X/Y/Z)	example_trial.trc
DataRate	CameraRate	NumFrames	NumMarkers	Units	OrigDataRate	OrigDataStartFrame	OrigNumFrames
100	100	9	20	mm	100	291	2322
Frame#	Time	Can1			Can2			Can3			ElbowLE			ElbowME			Elbow3			Elbow4			Elbow5			Elbow6			ForearmRS			ForearmUL			Forearm3			Forearm4			HandRS			HandUL			Hand3			Hand4			Hand5			Hand6			Hand7			
		X1	Y1	Z1	X2	Y2	Z2	X3	Y3	Z3	X4	Y4	Z4	X5	Y5	Z5	X6	Y6	Z6	X7	Y7	Z7	X8	Y8	Z8	X9	Y9	Z9	X10	Y10	Z10	X11	Y11	Z11	X12	Y12	Z12	X13	Y13	Z13	X14	Y14	Z14	X15	Y15	Z15	X16	Y16	Z16	X17	Y17	Z17	X18	Y18	Z18	X19	Y19	Z19	X20	Y20	Z20	

291	2.9	466.99122988854384	104.6889421711808	27.59275654492069	444.2338154107554	112.64673851074116	35.10267295183418	467.61189955778053	69.46724256915766	31.9345305973737	0.013919489316707612	-69.56202219333942	0.2768933328233029	-0.24021190135294734	90.61528221557369	0.6118478205534783	99.41773172081014	-34.41817944628227	-29.429460037610156	97.00380264692436	33.02958720411555	-31.4202395278737	98.81079221691103	34.53115154494578	25.184446176067738	100.55449837363379	-33.04535467447795	26.317183425403297	193.52057393205206	1.361266643797963	42.04885354356405	191.53121228511574	-0.5347935957795773	-55.61065452791486	122.17553420473924	-34.519093950916826	-29.52781476975673	120.17775446554505	32.688460762811246	-32.041285722869844	330.08274208113824	7.610582265318152	21.00112499504716	324.86451898191905	4.929083779701889	-48.13101372774061	413.45639020204726	-13.533331854851706	-45.040976787156225	446.2745070104105	-1.722630277967717	-50.15851216922002	437.2011983640345	-6.132761860637576	-14.82831296622042	450.886974885132	0.2653806581429201	7.7807739670901555	418.29070912291866	-9.129439065291248	7.816911033398476	
292	2.91	467.32394925873047	104.13844184449823	27.611786063139455	444.5886525868001	112.1676411930802	35.121671623767526	467.83820425891	68.91181475474329	31.96277837777273	-5.075198467796582e-05	-69.58232021259002	0.28572373956516695	-0.4063636733337992	90.57810154444059	0.6877232739859334	99.40998935819862	-34.42066241053786	-29.43643024301771	97.01484051420408	33.00799671912524	-31.430256767071377	98.81006980359828	34.52318975080493	25.177514810939147	100.55616636512852	-33.054550953338236	26.31786040861838	193.5209759074791	1.3441270633932518	42.044046762102916	191.66399491783312	-0.2932203760683727	-55.53933523652849	122.17026055831657	-34.524636072968484	-29.54151055123528	120.1823755378728	32.66553430663452	-32.05544519862116	330.1058175111713	7.479248305706548	21.00000527781478	324.96547882105034	4.782507140484903	-48.20246865381376	413.4459827319146	-13.918022128096894	-45.03556946499694	446.2776527447832	-2.1969529006425965	-50.14686838936207	437.1992208419514	-6.586655883392389	-14.799381533022764	451.0996678876034	-0.18563540201141038	7.937843048355482	418.27059594176404	-9.524080384357482	7.840233182111042	
293	2.92	467.60826091136926	103.5945039089271	27.6532123874533	444.9051040083176	111.6906560102862	35.16106612097785	468.03620312158887	68.37633525592754	32.00841459670273	0.09365529327009359	-69.47036665231543	0.1599587377759809	-0.37530442197738356	90.60305178069154	0.7093582691393147	99.40021051704149	-34.430775580122784	-29.462905690268286	97.02307844883875	32.996551593054704	-31.436764188157184	98.8148476897081	34.51262701945429	25.168031781047766	100.54622091484404	-33.0723024563123	26.3067566964057	193.51658691198432	1.3207257061613689	42.0305291278754	191.71756844616337	-0.12156244483810497	-55.56682084690708	122.16240878817078	-34.531209713392506	-29.545382155216235	120.1949287332403	32.6685715009339	-32.04634846730501	330.1072971066833	7.346439514313531	21.003525111928113	325.06584127826795	4.66193307713063	-48.067028974562604	413.43293416289015	-14.287828127917617	-45.01463589200167	446.28941668102806	-2.674616671915942	-50.120132929529376	437.1889094911097	-7.037189029152408	-14.78255362957588	451.23540813241436	-0.6007810957058517	7.982500811402524	418.2448811587745	-9.921972139429005	7.840435612102517	
294	2.93	467.92459347409925	103.04593340647293	27.685951107561422	445.22507790648416	111.20939540350545	35.190288888455875	468.24620901855496	67.813225441525	32.0276324497084	0.0077890028857714455	-69.15395408063121	0.020146347764003758	-0.5393547960916676	90.45861095578168	0.2065722217246473	99.39962877134829	-34.443660790238226	-29.460068525647102	97.01931065854437	33.002380977272836	-31.433267902305516	98.81545916329044	34.492251632304615	25.156919238756927	100.54313289177318	-33.074990685446	26.3055535661372	193.5146660738665	1.3017152270258041	42.021934283067424	191.11551831341964	-0.43788688583101987	-55.51801338794695	122.16166140957667	-34.54000180865608	-29.558798625527672	120.19691586672563	32.66167825931308	-32.04039417291253	330.12663080282806	7.228396859837256	21.005846440671746	324.9365090813643	4.655017311269241	-48.08627110709973	413.3998191117312	-14.676767267028257	-44.999403820029244	446.3023249581737	-3.142083541073994	-50.097785123928965	437.1747839717931	-7.474665367298826	-14.761293829238149	451.30025768120686	-1.0717927733938275	8.02455247337398	418.2093592638102	-10.28835583584468	7.8541708181754615	
295	2.94	468.2818652400886	102.49988759787213	27.717358426178272	445.6229418132832	110.73670290356887	35.21681634920587	468.4924747504408	67.26940650513882	32.06487510079128	0.024760300371855948	-69.16797355413279	0.036794683585387955	-0.7140535810217532	90.48057669235747	0.5868150280798964	99.40666370194266	-34.43443364136364	-29.453833379079743	97.01974780142345	33.014486785074396	-31.421135198466168	98.81747860361416	34.509802879754425	25.166429962729318	100.5554498502612	-33.07469144383908	26.29961503090143	193.5222744434159	1.3212737409737088	42.02180858096923	191.29794461126875	-0.7357621724647672	-55.53740453726328	122.17089366041343	-34.53499165527586	-29.555395775709204	120.18727358016831	32.67796133948033	-32.04232090464631	330.1519250509351	7.137661084342744	21.015472490510376	325.49734780051915	4.611463479747359	-47.939088385072466	413.372085606207	-15.035835442460325	-44.96660352156809	446.32743217615155	-3.630885931230555	-50.056836052197525	437.17737877542396	-7.924432083208817	-14.72675021542695	450.99920743185527	-1.6770557952773615	7.9674052156168855	418.19776224645	-10.680955815897281	7.900632906307578	
296	2.95	468.65627009395337	101.94266025033548	27.748180227957484	446.0162943667917	110.25050199107564	35.22866137252799	468.72956167434467	66.72121579541457	32.10177701984307	-0.14905304624727567	-69.57074226793775	0.35622969950858735	-0.4990294092470311	90.51886700498689	0.5625237717749626	99.41765478169788	-34.420482858152276	-29.440707465951746	97.01488280827958	33.00811467958828	-31.43633242987887	98.8230035656055	34.52398768433818	25.170922073227267	100.56237564625492	-33.05733519292436	26.308931900631528	193.53216652258098	1.3423882112452485	42.035893142422886	191.52631893870918	-0.3102005801535892	-55.570714878930715	122.18054475084612	-34.5174420358874	-29.548251576090685	120.18498894559873	32.66646697942794	-32.06595386285114	330.1700448548358	7.066890325071375	21.020864059690936	324.97005076441036	4.691967169873919	-47.93524783459539	413.35357562704513	-15.408330655972645	-44.92029294620569	446.34303240966995	-4.109081454507397	-49.995354485249706	437.1740473720216	-8.365986358772336	-14.660498188199345	451.2476792962201	-2.1181239684870654	8.123425629427587	418.17304477952007	-11.061074534704701	7.949332623676597	
297	2.96	468.9851268035073	101.38622328549084	27.80021150166825	446.3625068411286	109.77733007362407	35.280630675495736	468.9426106323642	66.17602472642282	32.14758321737569	-0.06945932360943896	-69.60513728920371	0.34886951005002376	-1.1436087267747217	90.37057868794967	0.672527702147457	99.43269999390877	-34.40782504174231	-29.430279678171374	97.01358616296751	33.013848052896265	-31.42646659635374	98.82855710242688	34.53476278794692	25.17836661583619	100.57148089060101	-33.039618757210725	26.314953724366298	193.5338099264607	1.3532460487190416	42.041256198686874	191.28158656426695	-0.6958270299864022	-55.5024021560985	122.19159600248963	-34.50312183559094	-29.529994838191335	120.1825516440609	32.66994718789686	-32.062294595551634	330.19679311574464	6.963932409566352	21.042395107909833	325.6743275227392	4.492953356962049	-48.06260531290634	413.34145658050016	-15.785478350792303	-44.86085375630079	446.359751992002	-4.6011546296649435	-49.94422874149014	437.1554502242465	-8.804087189303608	-14.617928026198065	451.39212986323327	-2.4328836746846925	8.122145010156665	418.1520147347791	-11.427791488731586	7.979753419690809	
298	2.97	469.2656197291186	100.84662759491005	27.849915595470335	446.67935381093884	109.2959439156721	35.31414461108766	469.13779472273933	65.62506885341506	32.20095737781238	0.007586369572092799	-69.5547939491738	0.27788187103449413	-0.168770631875101	90.65930991821674	0.8261844564903938	99.42223446394777	-34.41617573204151	-29.424740479530147	97.00815120405065	33.03766094779736	-31.421983884890373	98.81062538617824	34.527181667881884	25.18008199934151	100.54985693903416	-33.050974291213805	26.321080928955453	193.52739830350336	1.34565833638427	42.0412024375365	191.59216646413014	-0.1837030816864349	-55.57048360506853	122.17964604689473	-34.5088287317649	-29.533359594449927	120.18475913006701	32.678829010504884	-32.047337750189804	330.2001146033691	6.826513323060633	21.05475461972042	325.6428975614294	4.579531898064451	-48.07245170575126	413.29253656274796	-16.157323495423796	-44.83634147762007	446.431545022894	-4.906787245291397	-50.02609469943448	437.13854553552096	-9.267824821541442	-14.580707357484851	451.13910676558106	-3.127908944006336	8.26424644642902	418.12284395432937	-11.800875580972619	8.01000690815107	
299	2.98	469.56000655416096	100.296740167803	27.888935983881005	446.98775377085303	108.8048278341636	35.352747740187326	469.3241701616157	65.07178541626915	32.23428751728815	0.013361288030463214	-69.14169583388977	0.03474421141293921	-0.7526564498354151	90.36000148142617	-0.08466014801053195	99.41106139679198	-34.4238332842631	-29.451555293116435	97.01103896288616	33.009802213919244	-31.44528483612314	98.8107232685807	34.521514799494554	25.168473480999726	100.54078776139716	-33.05439551858015	26.308832695779852	193.52194574034158	1.3146314660895033	42.02733107590918	191.31555106007593	-0.7101392531531783	-55.541601362908594	122.15346322309999	-34.518128546290406	-29.548384560027138	120.18187903824271	32.66571266066211	-32.05834782688078	330.2070991977808	6.702636439277658	21.05043177083756	325.39216928491953	4.315071847032611	-48.238328792527106	413.2542379844116	-16.532715340402085	-44.82735145387381	446.31931020115957	-5.477439594661391	-49.90350052634842	437.1122371784851	-9.723123267695204	-14.56498570061953	451.1494983325131	-3.517697250449629	8.243416894010196	418.078094309084	-12.217746804688108	8.04142659413943	
